<svg width="20" height="20" viewBox="0 0 20 20" fill="none" xmlns="http://www.w3.org/2000/svg">
    <path fill-rule="evenodd" clip-rule="evenodd" d="M9.737.062a.586.586 0 0 1 .526 0l9.414 4.727c.198.1.323.302.323.524 0 .762-.372 1.467-.684 1.936a6.195 6.195 0 0 1-.657.82h-.002v.001l-.415-.414.415.415a.586.586 0 0 1-.415.171h-.586v8.242h.586c.156 0 .305.062.415.172l-.415.414.415-.414.002.003.004.004.013.013a4.101 4.101 0 0 1 .194.214c.121.142.283.344.446.588.312.468.684 1.174.684 1.936a.586.586 0 0 1-.586.586H.586A.586.586 0 0 1 0 19.414c0-.762.372-1.468.684-1.936a6.192 6.192 0 0 1 .64-.802l.013-.013a.347.347 0 0 1 .004-.005l.002-.002.415.414-.415-.414a.586.586 0 0 1 .415-.172h.586V8.242h-.586a.586.586 0 0 1-.415-.171l.415-.415-.415.414-.002-.002-.004-.004a2.23 2.23 0 0 1-.058-.06 6.188 6.188 0 0 1-.595-.755C.372 6.78 0 6.075 0 5.312c0-.221.125-.424.323-.523L9.737.062zM2.017 7.07h15.966c.098-.114.228-.277.358-.471a3.49 3.49 0 0 0 .368-.7H1.291c.089.237.22.477.368.7.13.194.26.357.358.471zm1.042-2.343H16.94L10 1.242 3.059 4.727zm13.425 3.515h-1.172v8.242h1.172V8.242zM2.017 17.656a5.022 5.022 0 0 0-.358.472c-.148.223-.28.462-.368.7h17.418a3.49 3.49 0 0 0-.368-.7 5.023 5.023 0 0 0-.358-.472H2.017zm1.499-1.172h1.171V8.242H3.516v8.242zm2.343-8.242v8.242h2.383V8.242H5.86zm3.555 0v8.242h1.172V8.242H9.414zm2.344 0v8.242h2.383V8.242h-2.383z" fill="#474DBB"/>
</svg>
