<svg width="347" height="314" viewBox="0 0 347 314" fill="none" xmlns="http://www.w3.org/2000/svg">
    <path style="mix-blend-mode:multiply" d="M312.573 266.131c-.119-8.219-7.285-15.336-6.585-23.524.611-7.174 7.081-12.454 13.633-15.547 6.551-3.094 13.84-5.001 19.366-9.661 9.798-8.266 10.777-24.851 2.017-34.192-8.073-8.613-22.952-12.083-25.252-23.621-2.292-11.497 10.461-22.267 7.635-33.646-2.129-8.572-12.006-12.683-20.816-13.937-5.72-.812-11.691-.947-17.132.981-5.441 1.927-10.284 6.217-11.622 11.794-1.844 7.693 3.125 15.756 1.433 23.483-3.936 18.01-36.959 16.268-40.617 34.336-2.486 12.283 11.639 22.85 10.624 35.334-.961 11.834-14.482 18.351-19.906 28.935-6.219 12.131.078 27.962 11.439 35.587 15.202 10.203 76.191 11.824 75.78-16.322h.003zM162.823 226.82c-6.711-4.815-16.748-3.366-22.946-8.818-5.431-4.771-5.832-13.074-4.419-20.133 1.413-7.06 4.229-13.998 3.763-21.182-.825-12.734-13.643-23.422-26.43-22.037-11.786 1.277-23.483 11.038-34.182 5.974-10.664-5.048-11.744-21.626-22.63-26.179-8.202-3.43-17.427 1.971-23.7 8.232-4.075 4.064-7.75 8.734-9.445 14.213-1.695 5.479-1.12 11.899 2.588 16.293 5.115 6.062 14.601 6.931 19.838 12.892 12.204 13.893-8.936 39.121 3.482 52.829 8.44 9.317 25.422 4.394 34.904 12.663 8.99 7.838 6.178 22.486 11.49 33.124 6.09 12.194 22.644 16.646 35.598 12.164 17.328-5.998 55.082-53.544 32.092-70.038l-.003.003z" fill="#E6EBFF"/>
    <path d="M236.929 262.289c12.838-41.969 39.007-79.789 73.715-106.928" stroke="#14294F" stroke-linecap="round" stroke-linejoin="round"/>
    <path d="M251.819 226.069c2.493-5.092 9.459-8.299 15.107-7.484.91.131 1.827.367 2.571.9.744.535 1.284 1.422 1.192 2.328-.156 1.587-1.96 2.406-3.512 2.821a45.752 45.752 0 0 1-15.358 1.432" stroke="#14294F" stroke-linecap="round" stroke-linejoin="round"/>
    <path d="M251.818 226.069c1.715-3.899 2.598-9.88 1.766-14.055-.407-2.042-1.457-4.333-3.518-4.724-2.242-.425-4.202 1.752-4.745 3.953-.676 2.729.034 5.651 1.362 8.134 1.331 2.483 3.24 4.603 5.135 6.692zM259.073 213.403c2.493-5.092 9.459-8.3 15.107-7.484.91.131 1.827.367 2.571.899.744.533 1.284 1.422 1.192 2.329-.156 1.587-1.959 2.406-3.512 2.82a45.723 45.723 0 0 1-15.358 1.432" stroke="#14294F" stroke-linecap="round" stroke-linejoin="round"/>
    <path d="M259.073 213.403c1.712-3.902 2.598-9.88 1.766-14.055-.407-2.042-1.457-4.333-3.518-4.724-2.242-.425-4.202 1.752-4.745 3.952-.676 2.73.034 5.651 1.362 8.135 1.331 2.483 3.24 4.602 5.135 6.692zM267.968 199.995c3.166-4.711 10.505-6.952 15.987-5.385.883.253 1.763.61 2.425 1.237.662.63 1.077 1.58.863 2.466-.37 1.55-2.272 2.12-3.865 2.325a45.718 45.718 0 0 1-15.413-.643" stroke="#14294F" stroke-linecap="round" stroke-linejoin="round"/>
    <path d="M267.968 199.995c2.232-3.636 3.923-9.442 3.668-13.688-.125-2.079-.852-4.488-2.842-5.152-2.16-.721-4.402 1.173-5.241 3.279-1.043 2.615-.737 5.604.241 8.242.978 2.638 2.585 4.994 4.174 7.322M277.885 187.116c3.652-4.35 11.192-5.806 16.476-3.666.849.344 1.688.792 2.279 1.486.591.697.9 1.685.595 2.544-.537 1.503-2.486 1.867-4.093 1.904a45.708 45.708 0 0 1-15.257-2.268z" stroke="#14294F" stroke-linecap="round" stroke-linejoin="round"/>
    <path d="M277.886 187.116c2.608-3.38 4.911-8.973 5.114-13.222.099-2.079-.366-4.553-2.275-5.425-2.072-.947-4.5.7-5.56 2.705-1.314 2.49-1.335 5.496-.645 8.222.689 2.726 2.034 5.24 3.366 7.72zM289.742 174.086c3.896-4.138 11.504-5.166 16.66-2.733.828.391 1.64.886 2.19 1.614.551.728.802 1.732.449 2.574-.622 1.473-2.588 1.726-4.195 1.668a45.654 45.654 0 0 1-15.104-3.123z" stroke="#14294F" stroke-linecap="round" stroke-linejoin="round"/>
    <path d="M289.742 174.086c2.795-3.225 5.417-8.684 5.862-12.916.218-2.072-.105-4.566-1.96-5.543-2.014-1.062-4.534.448-5.705 2.389-1.458 2.413-1.648 5.412-1.114 8.171.533 2.76 1.732 5.345 2.917 7.899zM301.45 163.101c4.317-3.7 11.996-3.916 16.856-.954.782.479 1.536 1.055 2.004 1.837.469.781.612 1.809.17 2.604-.774 1.399-2.758 1.439-4.351 1.217a45.674 45.674 0 0 1-14.679-4.704z" stroke="#14294F" stroke-linecap="round" stroke-linejoin="round"/>
    <path d="M301.45 163.101c3.128-2.912 6.321-8.061 7.221-12.219.438-2.035.387-4.552-1.352-5.718-1.888-1.27-4.558-.037-5.93 1.769-1.708 2.244-2.221 5.206-1.987 8.006.234 2.801 1.145 5.5 2.052 8.162M310.654 155.371c2.564-7.323 12.875-17.179 17.45-10.524 3.937 5.725-9.666 9.698-17.45 10.524zM134.802 312.925c.611-43.856-12.747-87.772-37.51-124.087" stroke="#14294F" stroke-linecap="round" stroke-linejoin="round"/>
    <path d="M131.697 273.928c-.815-5.604-6.474-10.756-12.101-11.679-.907-.148-1.855-.202-2.728.084-.873.287-1.657.967-1.847 1.86-.337 1.56 1.131 2.881 2.482 3.747a45.572 45.572 0 0 0 14.197 5.991" stroke="#14294F" stroke-linecap="round" stroke-linejoin="round"/>
    <path d="M131.697 273.928c-.438-4.232.551-10.197 2.619-13.923 1.012-1.823 2.714-3.69 4.799-3.441 2.266.27 3.464 2.935 3.312 5.193-.194 2.803-1.763 5.374-3.791 7.339-2.027 1.964-4.497 3.407-6.942 4.832M128.661 259.675c-.815-5.604-6.474-10.756-12.102-11.68-.906-.148-1.854-.202-2.727.085-.873.286-1.657.967-1.848 1.86-.336 1.56 1.131 2.881 2.483 3.747a45.596 45.596 0 0 0 14.197 5.991" stroke="#14294F" stroke-linecap="round" stroke-linejoin="round"/>
    <path d="M128.661 259.674c-.438-4.232.55-10.196 2.618-13.923 1.013-1.823 2.714-3.69 4.8-3.44 2.265.269 3.464 2.935 3.311 5.192-.194 2.804-1.763 5.375-3.79 7.339-2.028 1.965-4.497 3.407-6.943 4.832M124.29 244.218c-1.573-5.442-7.88-9.789-13.586-9.947-.917-.027-1.864.05-2.69.448-.825.401-1.508 1.183-1.579 2.089-.122 1.59 1.515 2.702 2.972 3.38a45.683 45.683 0 0 0 14.883 4.03z" stroke="#14294F" stroke-linecap="round" stroke-linejoin="round"/>
    <path d="M124.289 244.218c-1.012-4.135-.845-10.176.697-14.146.754-1.944 2.187-4.02 4.286-4.054 2.279-.037 3.834 2.443 3.991 4.701.193 2.804-1.012 5.563-2.751 7.781-1.739 2.217-3.991 3.979-6.219 5.718M118.78 228.96c-2.146-5.246-8.885-8.902-14.574-8.458-.917.071-1.847.246-2.625.732-.778.485-1.376 1.334-1.345 2.244.051 1.594 1.797 2.527 3.315 3.046a45.7 45.7 0 0 0 15.229 2.436zM118.781 228.96c-1.451-4.003-1.933-10.031-.826-14.139.544-2.012 1.743-4.229 3.828-4.481 2.262-.277 4.076 2.025 4.47 4.252.492 2.77-.411 5.637-1.902 8.026-1.491 2.39-3.543 4.378-5.57 6.342zM111.472 212.975c-2.446-5.115-9.381-8.387-15.036-7.622-.91.124-1.83.35-2.581.876-.748.529-1.294 1.408-1.216 2.315.142 1.587 1.94 2.422 3.485 2.854a45.693 45.693 0 0 0 15.344 1.573" stroke="#14294F" stroke-linecap="round" stroke-linejoin="round"/>
    <path d="M111.471 212.975c-1.678-3.916-2.503-9.904-1.633-14.072.424-2.039 1.497-4.32 3.562-4.691 2.245-.404 4.185 1.793 4.708 3.994.649 2.736-.088 5.65-1.44 8.12-1.352 2.47-3.285 4.573-5.197 6.645M103.68 198.98c-2.982-4.828-10.23-7.345-15.77-5.984-.89.219-1.783.542-2.472 1.146-.686.603-1.138 1.536-.958 2.433.313 1.563 2.187 2.203 3.773 2.469a45.76 45.76 0 0 0 15.427-.06" stroke="#14294F" stroke-linecap="round" stroke-linejoin="round"/>
    <path d="M103.68 198.981c-2.088-3.717-3.556-9.584-3.138-13.816.204-2.072 1.026-4.455 3.04-5.041 2.187-.64 4.354 1.338 5.108 3.474.941 2.652.523 5.627-.557 8.229-1.08 2.598-2.775 4.893-4.453 7.157M97.275 188.845c-.204-7.751-7.01-20.245-13.405-15.282-5.502 4.27 6.239 12.155 13.405 15.282zM268.549 111.424c-7.853 17.178-33.431 77.097-39.979 94.707" stroke="#14294F" stroke-linecap="round" stroke-linejoin="round"/>
    <path d="M285.766 113.021c5.111-1.344 9.768-4.374 13.018-8.515 1.437-1.83 2.639-3.973 2.721-6.291.081-2.318-1.23-4.802-3.465-5.49-1.633-.501-3.393 0-5.03.49-1.637.488-3.41.966-5.03.414-3.583-1.223-1.593-6.54-3.182-9.169-1.006-1.661-3.04-2.503-4.99-2.52-1.949-.017-3.837.677-5.6 1.51-2.605 1.226-5.716 1.893-7.357-1.106-.618-1.132-1.012-2.423-1.946-3.32-1.664-1.596-4.554-1.273-6.348.183-1.793 1.452-2.7 3.72-3.274 5.947-1.457 5.661-1.175 11.895 1.566 17.067a16.711 16.711 0 0 0 5.312 5.982c1.949 1.337 4.075 1.833 6.134 2.86 4.768 2.376 10.168 3.313 15.45 2.403a22.991 22.991 0 0 0 2.024-.441l-.003-.004z" fill="#FFBC40"/>
    <path d="M262.235 84.305a54.541 54.541 0 0 0 3.543 20.609M297.004 95.806a79.649 79.649 0 0 1-23.574 14.856M280.029 86.543c-4.691 8.1-7.829 14.816-11.151 23.557" stroke="#14294F" stroke-linecap="round" stroke-linejoin="round"/>
    <path d="M278.253 113.756c.818-1.109 1.209-2.437.733-3.926-.818-2.551-3.909-3.774-6.392-3.073a5.504 5.504 0 0 0-3.386 2.793c.431-1.799-.051-3.787-1.257-5.196-2.105-2.463-6.517-2.365-7.835.843-.139.34-.231.694-.292 1.054 2.893 3.886 10.807 8.751 18.432 7.501l-.003.004z" fill="#474EBB"/>
    <path d="M252.352 141.255c-6.912-4.036-10.78-11.952-11.84-19.84-1.06-7.888 2.102-15.356 3.454-23.2 7.302 11.319 10.366 24.716 8.382 43.04h.004z" fill="#1C3B75"/>
    <path d="M245.644 104.766a150.828 150.828 0 0 0 7.734 40.439" stroke="#14294F" stroke-linecap="round" stroke-linejoin="round"/>
    <path d="M253.469 152.156c7.003 2.564 15.205.371 21.781-3.895 6.575-4.266 10.427-11.41 15.589-17.445-12.74 1.816-24.63 8.117-37.37 21.34z" fill="#1C3B75"/>
    <path d="M284.923 133.765c-10.811 8.279-22.634 15.082-35.031 20.157M47.597 208.678c8.78 16.73 40.523 73.674 50.45 89.653" stroke="#14294F" stroke-linecap="round" stroke-linejoin="round"/>
    <path d="M59.492 196.224c2.085-4.822 2.557-10.324 1.28-15.416-.564-2.251-1.522-4.512-3.311-6.005-1.79-1.496-4.569-2.001-6.491-.684-1.41.967-2.092 2.649-2.717 4.229-.625 1.581-1.338 3.259-2.775 4.182-3.179 2.042-6.168-2.793-9.238-3.174-1.936-.239-3.862.829-5.078 2.342-1.216 1.513-1.83 3.413-2.258 5.304-.636 2.79-2.025 5.63-5.418 5.061-1.277-.216-2.547-.705-3.834-.529-2.296.313-3.821 2.77-3.774 5.068.048 2.298 1.288 4.404 2.697 6.227 3.59 4.633 8.709 8.259 14.503 9.307a16.92 16.92 0 0 0 8.019-.459c2.265-.697 3.97-2.052 6.052-3.022 4.826-2.254 8.899-5.894 11.44-10.581.325-.603.627-1.223.9-1.853l.003.003z" fill="#FFBC40"/>
    <path d="M22.192 196.875a55.536 55.536 0 0 0 18.53 9.95M52.766 176.825a78.325 78.325 0 0 1-2.764 27.571M34.945 184.363c3.53 8.66 6.922 15.258 11.806 23.244" stroke="#14294F" stroke-linecap="round" stroke-linejoin="round"/>
    <path d="M55.436 202.542c-.377-1.321-1.186-2.449-2.66-2.995-2.53-.937-5.407.724-6.381 3.096a5.446 5.446 0 0 0 .125 4.368c-1.161-1.446-3.036-2.299-4.897-2.228-3.25.125-5.9 3.629-4.168 6.638.184.32.408.61.656.88 4.867.138 13.61-3.036 17.325-9.762v.003z" fill="#474EBB"/>
    <path d="M61.264 239.73c-7.465 2.904-16.133 1.041-23.04-2.999-6.909-4.041-10.886-11.117-16.27-17.014 13.484 1.284 26 7.157 39.31 20.013z" fill="#1C3B75"/>
    <path d="M28.183 222.454a153.638 153.638 0 0 0 36.844 18.917" stroke="#14294F" stroke-linecap="round" stroke-linejoin="round"/>
    <path d="M70.6 245.586c6.355-3.885 9.677-11.642 10.353-19.409.676-7.767-2.615-15.18-4.215-22.934-6.42 11.066-8.76 24.238-6.134 42.343h-.003z" fill="#1C3B75"/>
    <path d="M75.424 209.683c-.106 13.549-2.004 26.974-5.628 39.785" stroke="#14294F" stroke-linecap="round" stroke-linejoin="round"/>
    <path d="M255.334 277.143s-18.538-78.783-28.887-100.352c-9.9-20.632-24.28-33.302-47.247-35.02-24.41-1.827-49.645-7.922-68.753 4.839-4.32-13.445-27.82-55.131-37.21-64.99-2.854-2.996-6.179-5.972-10.299-6.528-5.63-.758-11.384 4.253-11.167 9.883.122 3.219 2.843 10.029 4.252 12.93 3.234 6.655 19.9 42.838 31.828 70.135 4.928 11.279 15.307 19.295 27.534 21.276l70.567 11.437c3.016 15.921 4.976 58.291 5.645 76.39h63.737z" fill="#FCCB92"/>
    <path d="M228.01 43.98h-38.183v107.023h38.183V43.98z" fill="#1C3B75"/>
    <path d="M172.828 1.075h-38.179l-57.484 48.85h38.182l57.481-48.85z" fill="#474EBB"/>
    <path d="M139.109 1.075 88.391 43.98v107.024h101.436V43.981L139.109 1.075z" fill="#D0D7FE"/>
    <path d="M171.252 55.93h-64.29v28h64.29v-28z" fill="#474EBB"/>
    <path d="M168.998 57.894h-59.777V83.93h59.777V57.894z" stroke="#14294F" stroke-linecap="round" stroke-linejoin="round"/>
    <path d="M139.11 55.93v30.255M171.252 71.059h-64.29" stroke="#D4DBFF" stroke-linecap="round" stroke-linejoin="round"/>
    <path d="M173.569 83.93h-68.92v3.141h68.92v-3.14z" fill="#1C3B75"/>
    <path d="M114.145 100.887H97.109v35.459h17.036v-35.459z" fill="#474EBB"/>
    <path d="M111.891 102.713H99.368v31.843h12.523v-31.843z" stroke="#14294F" stroke-linecap="round" stroke-linejoin="round"/>
    <path d="M105.627 100.887v35.765M114.418 118.77h-17.58" stroke="#D4DBFF" stroke-linecap="round" stroke-linejoin="round"/>
    <path d="M116.462 136.285H94.797v2.918h21.665v-2.918zM116.462 98.195H94.797v2.918h21.665v-2.918z" fill="#1C3B75"/>
    <path d="M181.106 100.887H164.07v35.459h17.036v-35.459z" fill="#474EBB"/>
    <path d="M178.85 102.713h-12.522v31.843h12.522v-31.843z" stroke="#14294F" stroke-linecap="round" stroke-linejoin="round"/>
    <path d="M172.587 100.887v35.765M181.377 118.77h-17.58" stroke="#D4DBFF" stroke-linecap="round" stroke-linejoin="round"/>
    <path d="M183.422 136.285h-21.666v2.918h21.666v-2.918zM183.422 98.195h-21.666v2.918h21.666v-2.918zM139.109 40.86c6.19 0 11.209-4.978 11.209-11.12 0-6.14-5.019-11.12-11.209-11.12-6.19 0-11.208 4.98-11.208 11.12 0 6.142 5.018 11.12 11.208 11.12z" fill="#1C3B75"/>
    <path d="M145.842 36.42a9.392 9.392 0 0 0 0-13.358c-3.718-3.689-9.746-3.689-13.463 0a9.392 9.392 0 0 0 0 13.357c3.717 3.689 9.745 3.689 13.463 0z" stroke="#14294F" stroke-linecap="round" stroke-linejoin="round"/>
    <path d="M139.11 18.57v22.411M127.816 29.777h22.586" stroke="#D4DBFF" stroke-linecap="round" stroke-linejoin="round"/>
    <path d="M152.582 100.21h-26.95V151h26.95v-50.79z" fill="#1C3B75"/>
    <path d="M154.937 98.195h-31.658V151h31.658V98.195z" stroke="#14294F" stroke-linecap="round" stroke-linejoin="round"/>
    <path d="M148.337 126.486a1.64 1.64 0 0 1-1.647 1.634 1.64 1.64 0 0 1-1.647-1.634 1.64 1.64 0 0 1 1.647-1.634c.91 0 1.647.731 1.647 1.634z" stroke="#D4DBFF" stroke-linecap="round" stroke-linejoin="round"/>
    <path d="M134.715 1.075h42.577l57.48 48.85h-38.179l-61.878-48.85z" fill="#474EBB"/>
    <path d="m196.593 49.925-61.878-48.85" stroke="#14294F" stroke-linecap="round" stroke-linejoin="round"/>
    <path d="M213.847 161.638c-3.22-5.428-6.487-10.914-10.93-15.409-8.066-8.165-22.426-11.46-33.532-8.407-8.023 2.203-14.557 5.485-17.811 13.091 0 0-18.123-9.112-27.8-13.61-3.97-1.847-20.429-9.631-25.265 2.901-4.049 10.486 8.942 15.214 13.792 17.37 20.997 9.334 47.75 19.16 47.75 19.16" fill="#FCCB92"/>
    <path d="M106.382 133.458c-3.326.623-6.253 2.541-7.873 6.743-4.049 10.486 8.942 15.213 13.792 17.37 20.997 9.334 47.75 19.16 47.75 19.16M161.271 140.824c-4.249 2.173-7.635 5.26-9.7 10.085 0 0-10.56-5.307-19.862-9.822M213.847 161.638c-1.61-2.712-3.233-5.442-5.006-8.053M55.226 78.149c3.457-.2 6.776 1.64 9.146 4.144 2.371 2.504 3.95 5.624 5.496 8.697.34.678.69 1.436.482 2.164-.14.492-.516.88-.89 1.233-2.68 2.54-8.644 4.812-12.2 5.853" stroke="#14294F" stroke-linecap="round" stroke-linejoin="round"/>
    <path d="M99.216 140.47c6.439.523 12.678 3.144 17.566 7.333a4.96 4.96 0 0 1 1.684 4.373 11.514 11.514 0 0 1-3.342 6.73" stroke="#14294F" stroke-linecap="round" stroke-linejoin="round"/>
    <path d="M243.689 34.355c.496-2.089-.807-4.181-2.912-4.674-2.105-.493-4.214.8-4.711 2.888-.497 2.089.807 4.181 2.912 4.674 2.105.493 4.214-.8 4.711-2.889zM245.907 68.276c.497-2.088-.807-4.18-2.912-4.673-2.105-.493-4.214.8-4.711 2.889-.496 2.088.807 4.18 2.912 4.673 2.105.493 4.214-.8 4.711-2.889z" stroke="#D4DBFF" stroke-width="2" stroke-linecap="round" stroke-linejoin="round"/>
    <path d="M269.782 68.384a2.71 2.71 0 0 0 2.72-2.7 2.71 2.71 0 0 0-2.72-2.698 2.71 2.71 0 0 0-2.721 2.699c0 1.49 1.218 2.699 2.721 2.699zM31.278 51.36a2.71 2.71 0 0 0 2.72-2.699 2.71 2.71 0 0 0-2.72-2.7 2.71 2.71 0 0 0-2.72 2.7 2.71 2.71 0 0 0 2.72 2.7zM18.079 132.434a2.71 2.71 0 0 0 2.72-2.7 2.71 2.71 0 0 0-2.72-2.699 2.71 2.71 0 0 0-2.72 2.699 2.71 2.71 0 0 0 2.72 2.7zM14.893 232.92a2.71 2.71 0 0 0 2.72-2.7 2.71 2.71 0 0 0-2.72-2.699 2.71 2.71 0 0 0-2.72 2.699 2.71 2.71 0 0 0 2.72 2.7zM338.868 198.189c1.503 0 2.721-1.209 2.721-2.699a2.71 2.71 0 0 0-2.721-2.699 2.71 2.71 0 0 0-2.72 2.699 2.71 2.71 0 0 0 2.72 2.699zM254.226 23.433a2.71 2.71 0 0 0 2.721-2.7 2.71 2.71 0 0 0-2.721-2.699 2.71 2.71 0 0 0-2.72 2.7 2.71 2.71 0 0 0 2.72 2.698z" stroke="#474EBB" stroke-width="2" stroke-miterlimit="10"/>
    <path d="M316.465 118.541a3.864 3.864 0 0 0 0-5.494 3.938 3.938 0 0 0-5.538 0 3.864 3.864 0 0 0 0 5.494 3.937 3.937 0 0 0 5.538 0zM313.658 200.932c.347-2.118-1.103-4.113-3.238-4.457-2.134-.344-4.146 1.094-4.492 3.212-.347 2.118 1.103 4.114 3.237 4.458 2.135.344 4.147-1.095 4.493-3.213zM58.779 48.421c.499-2.088-.802-4.182-2.907-4.677-2.104-.495-4.215.795-4.714 2.883-.5 2.088.802 4.182 2.906 4.677 2.104.496 4.215-.795 4.715-2.883zM38.176 26.29a3.864 3.864 0 0 0 0-5.494 3.938 3.938 0 0 0-5.538 0 3.864 3.864 0 0 0 0 5.494 3.938 3.938 0 0 0 5.538 0zM34.025 119.231c2.163 0 3.916-1.739 3.916-3.885 0-2.145-1.753-3.885-3.916-3.885-2.163 0-3.916 1.74-3.916 3.885 0 2.146 1.753 3.885 3.916 3.885zM78.818 188.103c.463-2.096-.876-4.167-2.988-4.626-2.113-.458-4.2.869-4.663 2.965-.462 2.097.876 4.168 2.989 4.626 2.113.459 4.2-.869 4.662-2.965zM9.048 216.323c.524-2.081-.752-4.191-2.85-4.711-2.098-.52-4.224.746-4.749 2.828-.524 2.081.752 4.191 2.85 4.711 2.098.52 4.224-.746 4.749-2.828z" stroke="#D4DBFF" stroke-width="2" stroke-linecap="round" stroke-linejoin="round"/>
    <path d="M244.648 47.542c9.948 0 11.528 11.437 11.528 11.437s1.579-11.437 11.527-11.437c-9.948 0-11.527-11.436-11.527-11.436s-1.58 11.436-11.528 11.436zM57.199 24.04c9.948 0 11.527 11.436 11.527 11.436s1.58-11.437 11.527-11.437c-9.948 0-11.527-11.437-11.527-11.437S67.146 24.04 57.199 24.04zM38.902 135.652c9.948 0 11.528 11.436 11.528 11.436s1.579-11.436 11.527-11.436c-9.948 0-11.527-11.437-11.527-11.437s-1.58 11.437-11.528 11.437z" fill="#D4DBFF"/>
</svg>
